<svg width="170" height="64" viewBox="0 0 170 64" fill="none" xmlns="http://www.w3.org/2000/svg">
<path d="M21.6645 19.2C17.5483 19.2 14.2 22.5514 14.2 26.6687V37.3354C14.2 41.4516 17.5514 44.7999 21.6687 44.7999H32.3354C36.4516 44.7999 39.7999 41.4485 39.7999 37.3312V26.6645C39.7999 22.5483 36.4485 19.2 32.3312 19.2H21.6645ZM34.4666 23.4666C35.0554 23.4666 35.5333 23.9445 35.5333 24.5333C35.5333 25.1221 35.0554 25.6 34.4666 25.6C33.8778 25.6 33.4 25.1221 33.4 24.5333C33.4 23.9445 33.8778 23.4666 34.4666 23.4666ZM27 25.6C30.5296 25.6 33.4 28.4704 33.4 32C33.4 35.5296 30.5296 38.4 27 38.4C23.4704 38.4 20.6 35.5296 20.6 32C20.6 28.4704 23.4704 25.6 27 25.6ZM27 27.7333C25.8684 27.7333 24.7831 28.1828 23.983 28.983C23.1828 29.7831 22.7333 30.8684 22.7333 32C22.7333 33.1315 23.1828 34.2168 23.983 35.0169C24.7831 35.8171 25.8684 36.2666 27 36.2666C28.1315 36.2666 29.2168 35.8171 30.0169 35.0169C30.8171 34.2168 31.2666 33.1315 31.2666 32C31.2666 30.8684 30.8171 29.7831 30.0169 28.983C29.2168 28.1828 28.1315 27.7333 27 27.7333V27.7333Z" fill="white"/>
<path d="M53.2971 39C53.1638 39 53.0438 38.9533 52.9371 38.86C52.8438 38.7533 52.7971 38.6333 52.7971 38.5V25.5C52.7971 25.3533 52.8438 25.2333 52.9371 25.14C53.0438 25.0467 53.1638 25 53.2971 25H56.1571C56.3038 25 56.4238 25.0467 56.5171 25.14C56.6104 25.2333 56.6571 25.3533 56.6571 25.5V38.5C56.6571 38.6333 56.6104 38.7533 56.5171 38.86C56.4238 38.9533 56.3038 39 56.1571 39H53.2971ZM60.0591 39C59.9258 39 59.8058 38.9533 59.6991 38.86C59.6058 38.7533 59.5591 38.6333 59.5591 38.5V29.1C59.5591 28.9533 59.6058 28.8333 59.6991 28.74C59.8058 28.6467 59.9258 28.6 60.0591 28.6H62.5191C62.6658 28.6 62.7858 28.6467 62.8791 28.74C62.9725 28.8333 63.0191 28.9533 63.0191 29.1V29.86C63.3791 29.42 63.8391 29.0667 64.3991 28.8C64.9725 28.5333 65.6258 28.4 66.3591 28.4C67.1191 28.4 67.7925 28.5733 68.3791 28.92C68.9791 29.2667 69.4458 29.78 69.7791 30.46C70.1258 31.14 70.2991 31.96 70.2991 32.92V38.5C70.2991 38.6333 70.2525 38.7533 70.1591 38.86C70.0658 38.9533 69.9458 39 69.7991 39H67.1391C66.9925 39 66.8658 38.9533 66.7591 38.86C66.6658 38.7667 66.6191 38.6467 66.6191 38.5V33.04C66.6191 32.44 66.4725 31.98 66.1791 31.66C65.8991 31.34 65.4858 31.18 64.9391 31.18C64.4058 31.18 63.9858 31.3467 63.6791 31.68C63.3725 32 63.2191 32.4533 63.2191 33.04V38.5C63.2191 38.6333 63.1725 38.7533 63.0791 38.86C62.9858 38.9533 62.8658 39 62.7191 39H60.0591ZM77.2488 39.2C76.1555 39.2 75.2422 39.0467 74.5088 38.74C73.7755 38.4333 73.2288 38.0667 72.8688 37.64C72.5222 37.2133 72.3488 36.8267 72.3488 36.48C72.3488 36.3467 72.3955 36.24 72.4888 36.16C72.5955 36.0667 72.7088 36.02 72.8288 36.02H75.2488C75.3288 36.02 75.3955 36.0467 75.4488 36.1C75.6755 36.2467 75.8022 36.3333 75.8288 36.36C76.0822 36.5467 76.3155 36.6933 76.5288 36.8C76.7555 36.8933 77.0222 36.94 77.3288 36.94C77.6888 36.94 77.9822 36.8733 78.2088 36.74C78.4488 36.5933 78.5688 36.3933 78.5688 36.14C78.5688 35.9267 78.5022 35.7533 78.3688 35.62C78.2488 35.4867 78.0088 35.36 77.6488 35.24C77.3022 35.1067 76.7688 34.9733 76.0488 34.84C73.7422 34.3733 72.5888 33.3067 72.5888 31.64C72.5888 31.0933 72.7622 30.5733 73.1088 30.08C73.4688 29.5733 73.9888 29.1667 74.6688 28.86C75.3622 28.5533 76.1888 28.4 77.1488 28.4C78.1222 28.4 78.9622 28.5533 79.6688 28.86C80.3888 29.1533 80.9355 29.5133 81.3088 29.94C81.6822 30.3533 81.8688 30.7333 81.8688 31.08C81.8688 31.2 81.8222 31.3067 81.7288 31.4C81.6488 31.4933 81.5488 31.54 81.4288 31.54H79.2288C79.1088 31.54 79.0155 31.5133 78.9488 31.46C78.7888 31.38 78.6288 31.28 78.4688 31.16C78.2288 31 78.0155 30.88 77.8288 30.8C77.6555 30.7067 77.4288 30.66 77.1488 30.66C76.8155 30.66 76.5555 30.7333 76.3688 30.88C76.1822 31.0267 76.0888 31.2133 76.0888 31.44C76.0888 31.64 76.1422 31.8067 76.2488 31.94C76.3688 32.06 76.6022 32.18 76.9488 32.3C77.3088 32.42 77.8488 32.5467 78.5688 32.68C79.8755 32.9067 80.8222 33.3133 81.4088 33.9C82.0088 34.4733 82.3088 35.1467 82.3088 35.92C82.3088 36.92 81.8622 37.72 80.9688 38.32C80.0888 38.9067 78.8488 39.2 77.2488 39.2ZM89.823 39C86.9964 39 85.583 37.6733 85.583 35.02V31.32H84.003C83.8697 31.32 83.7497 31.2733 83.643 31.18C83.5497 31.0733 83.503 30.9533 83.503 30.82V29.1C83.503 28.9533 83.5497 28.8333 83.643 28.74C83.7497 28.6467 83.8697 28.6 84.003 28.6H85.583V25.3C85.583 25.1533 85.6297 25.0333 85.723 24.94C85.8297 24.8467 85.9497 24.8 86.083 24.8H88.543C88.6897 24.8 88.8097 24.8467 88.903 24.94C88.9964 25.0333 89.043 25.1533 89.043 25.3V28.6H91.543C91.6897 28.6 91.8097 28.6467 91.903 28.74C92.0097 28.8333 92.063 28.9533 92.063 29.1V30.82C92.063 30.9667 92.0097 31.0867 91.903 31.18C91.8097 31.2733 91.6897 31.32 91.543 31.32H89.043V34.72C89.043 35.1867 89.1297 35.54 89.303 35.78C89.4764 36.02 89.7564 36.14 90.143 36.14H91.723C91.8697 36.14 91.9897 36.1933 92.083 36.3C92.1764 36.3933 92.223 36.5133 92.223 36.66V38.5C92.223 38.6333 92.1764 38.7533 92.083 38.86C91.9897 38.9533 91.8697 39 91.723 39H89.823ZM97.3757 39.2C96.669 39.2 96.0224 39.0667 95.4357 38.8C94.8624 38.52 94.409 38.14 94.0757 37.66C93.7557 37.18 93.5957 36.6533 93.5957 36.08C93.5957 35.1733 93.969 34.44 94.7157 33.88C95.4757 33.3067 96.5157 32.9133 97.8357 32.7L100.316 32.32V32.08C100.316 31.5867 100.216 31.2267 100.016 31C99.8157 30.7733 99.4757 30.66 98.9957 30.66C98.729 30.66 98.5024 30.7067 98.3157 30.8C98.1424 30.8933 97.9424 31.0333 97.7157 31.22C97.5424 31.3667 97.389 31.4733 97.2557 31.54C97.2024 31.6333 97.1357 31.68 97.0557 31.68H94.7357C94.6024 31.68 94.489 31.64 94.3957 31.56C94.3157 31.4667 94.2824 31.36 94.2957 31.24C94.309 30.88 94.489 30.48 94.8357 30.04C95.1824 29.5867 95.709 29.2 96.4157 28.88C97.1224 28.56 97.9957 28.4 99.0357 28.4C100.689 28.4 101.916 28.7667 102.716 29.5C103.516 30.22 103.916 31.2 103.916 32.44V38.5C103.916 38.6333 103.869 38.7533 103.776 38.86C103.682 38.9533 103.562 39 103.416 39H100.956C100.822 39 100.702 38.9533 100.596 38.86C100.502 38.7533 100.456 38.6333 100.456 38.5V37.8C100.162 38.2133 99.7557 38.5533 99.2357 38.82C98.7157 39.0733 98.0957 39.2 97.3757 39.2ZM98.3757 36.84C98.9624 36.84 99.4357 36.6467 99.7957 36.26C100.169 35.8733 100.356 35.3133 100.356 34.58V34.34L98.6957 34.62C97.5757 34.8333 97.0157 35.2333 97.0157 35.82C97.0157 36.1267 97.1424 36.3733 97.3957 36.56C97.6624 36.7467 97.989 36.84 98.3757 36.84ZM111.691 43.4C110.411 43.4 109.371 43.1933 108.571 42.78C107.771 42.3667 107.198 41.8867 106.851 41.34C106.505 40.8067 106.331 40.36 106.331 40C106.331 39.8667 106.385 39.7533 106.491 39.66C106.598 39.5667 106.718 39.52 106.851 39.52H109.531C109.665 39.52 109.771 39.5467 109.851 39.6C109.931 39.6667 110.005 39.7733 110.071 39.92C110.205 40.2133 110.378 40.44 110.591 40.6C110.805 40.7733 111.138 40.86 111.591 40.86C112.165 40.86 112.591 40.7133 112.871 40.42C113.151 40.14 113.291 39.6667 113.291 39V37.66C112.585 38.3933 111.618 38.76 110.391 38.76C109.045 38.76 108.011 38.3733 107.291 37.6C106.585 36.8133 106.198 35.66 106.131 34.14L106.111 33.6C106.111 31.9733 106.471 30.7 107.191 29.78C107.925 28.86 108.991 28.4 110.391 28.4C111.071 28.4 111.671 28.5333 112.191 28.8C112.711 29.0533 113.145 29.4 113.491 29.84V29.12C113.491 28.9733 113.538 28.8533 113.631 28.76C113.725 28.6533 113.845 28.6 113.991 28.6H116.431C116.578 28.6 116.698 28.6533 116.791 28.76C116.898 28.8533 116.951 28.9733 116.951 29.12V38.7C116.951 40.2333 116.491 41.4 115.571 42.2C114.651 43 113.358 43.4 111.691 43.4ZM111.531 36.06C112.105 36.06 112.531 35.8867 112.811 35.54C113.091 35.1933 113.251 34.7533 113.291 34.22C113.305 34.1267 113.311 33.9267 113.311 33.62C113.311 33.3 113.305 33.1 113.291 33.02C113.251 32.4733 113.091 32.0333 112.811 31.7C112.531 31.3533 112.105 31.18 111.531 31.18C110.945 31.18 110.518 31.36 110.251 31.72C109.985 32.0667 109.838 32.5533 109.811 33.18L109.791 33.62C109.791 34.38 109.918 34.98 110.171 35.42C110.425 35.8467 110.878 36.06 111.531 36.06ZM120.145 39C120.012 39 119.892 38.9533 119.785 38.86C119.692 38.7533 119.645 38.6333 119.645 38.5V29.12C119.645 28.9733 119.692 28.8533 119.785 28.76C119.878 28.6533 119.998 28.6 120.145 28.6H122.585C122.732 28.6 122.852 28.6533 122.945 28.76C123.052 28.8533 123.105 28.9733 123.105 29.12V29.88C123.478 29.4667 123.912 29.1533 124.405 28.94C124.912 28.7133 125.472 28.6 126.085 28.6H126.985C127.132 28.6 127.252 28.6467 127.345 28.74C127.438 28.8333 127.485 28.9533 127.485 29.1V31.28C127.485 31.4133 127.438 31.5333 127.345 31.64C127.252 31.7333 127.132 31.78 126.985 31.78H124.965C124.432 31.78 124.018 31.9267 123.725 32.22C123.445 32.5133 123.305 32.9267 123.305 33.46V38.5C123.305 38.6467 123.252 38.7667 123.145 38.86C123.052 38.9533 122.932 39 122.785 39H120.145ZM132.228 39.2C131.521 39.2 130.875 39.0667 130.288 38.8C129.715 38.52 129.261 38.14 128.928 37.66C128.608 37.18 128.448 36.6533 128.448 36.08C128.448 35.1733 128.821 34.44 129.568 33.88C130.328 33.3067 131.368 32.9133 132.688 32.7L135.168 32.32V32.08C135.168 31.5867 135.068 31.2267 134.868 31C134.668 30.7733 134.328 30.66 133.848 30.66C133.581 30.66 133.355 30.7067 133.168 30.8C132.995 30.8933 132.795 31.0333 132.568 31.22C132.395 31.3667 132.241 31.4733 132.108 31.54C132.055 31.6333 131.988 31.68 131.908 31.68H129.588C129.455 31.68 129.341 31.64 129.248 31.56C129.168 31.4667 129.135 31.36 129.148 31.24C129.161 30.88 129.341 30.48 129.688 30.04C130.035 29.5867 130.561 29.2 131.268 28.88C131.975 28.56 132.848 28.4 133.888 28.4C135.541 28.4 136.768 28.7667 137.568 29.5C138.368 30.22 138.768 31.2 138.768 32.44V38.5C138.768 38.6333 138.721 38.7533 138.628 38.86C138.535 38.9533 138.415 39 138.268 39H135.808C135.675 39 135.555 38.9533 135.448 38.86C135.355 38.7533 135.308 38.6333 135.308 38.5V37.8C135.015 38.2133 134.608 38.5533 134.088 38.82C133.568 39.0733 132.948 39.2 132.228 39.2ZM133.228 36.84C133.815 36.84 134.288 36.6467 134.648 36.26C135.021 35.8733 135.208 35.3133 135.208 34.58V34.34L133.548 34.62C132.428 34.8333 131.868 35.2333 131.868 35.82C131.868 36.1267 131.995 36.3733 132.248 36.56C132.515 36.7467 132.841 36.84 133.228 36.84ZM141.844 39C141.71 39 141.59 38.9533 141.484 38.86C141.39 38.7533 141.344 38.6333 141.344 38.5V29.1C141.344 28.9533 141.39 28.8333 141.484 28.74C141.59 28.6467 141.71 28.6 141.844 28.6H144.164C144.31 28.6 144.43 28.6467 144.524 28.74C144.617 28.8333 144.664 28.9533 144.664 29.1V29.78C144.984 29.3933 145.397 29.0667 145.904 28.8C146.41 28.5333 146.984 28.4 147.624 28.4C149.09 28.4 150.097 28.9733 150.644 30.12C150.964 29.6133 151.41 29.2 151.984 28.88C152.557 28.56 153.17 28.4 153.824 28.4C154.917 28.4 155.804 28.7733 156.484 29.52C157.177 30.2533 157.524 31.3533 157.524 32.82V38.5C157.524 38.6333 157.477 38.7533 157.384 38.86C157.29 38.9533 157.17 39 157.024 39H154.564C154.417 39 154.29 38.9533 154.184 38.86C154.09 38.7667 154.044 38.6467 154.044 38.5V32.96C154.044 32.3467 153.91 31.9 153.644 31.62C153.39 31.3267 153.044 31.18 152.604 31.18C152.19 31.18 151.85 31.3267 151.584 31.62C151.33 31.9 151.204 32.3467 151.204 32.96V38.5C151.204 38.6333 151.157 38.7533 151.064 38.86C150.97 38.9533 150.85 39 150.704 39H148.244C148.097 39 147.97 38.9533 147.864 38.86C147.77 38.7667 147.724 38.6467 147.724 38.5V32.96C147.724 32.3467 147.59 31.9 147.324 31.62C147.057 31.3267 146.71 31.18 146.284 31.18C145.87 31.18 145.53 31.3267 145.264 31.62C144.997 31.9 144.864 32.34 144.864 32.94V38.5C144.864 38.6333 144.817 38.7533 144.724 38.86C144.63 38.9533 144.51 39 144.364 39H141.844Z" fill="white"/>
</svg>
