<svg width="56" height="56" viewBox="0 0 56 56" fill="none" xmlns="http://www.w3.org/2000/svg">
<path fill-rule="evenodd" clip-rule="evenodd" d="M27.9998 9.33329C17.6905 9.33329 9.33317 17.6906 9.33317 28C9.33317 38.3093 17.6905 46.6666 27.9998 46.6666C38.3092 46.6666 46.6665 38.3093 46.6665 28C46.6665 17.6906 38.3092 9.33329 27.9998 9.33329ZM4.6665 28C4.6665 15.1133 15.1132 4.66663 27.9998 4.66663C40.8864 4.66663 51.3332 15.1133 51.3332 28C51.3332 40.8865 40.8864 51.3333 27.9998 51.3333C15.1132 51.3333 4.6665 40.8865 4.6665 28Z" fill="#DDEAF5"/>
<path d="M27.9998 16.3334C26.7111 16.3334 25.6665 17.3781 25.6665 18.6667C25.6665 19.9554 26.7111 21 27.9998 21C29.2885 21 30.3332 19.9554 30.3332 18.6667C30.3332 17.3781 29.2885 16.3334 27.9998 16.3334Z" fill="#DDEAF5"/>
<path d="M30.3332 28C30.3332 26.7113 29.2885 25.6666 27.9998 25.6666C26.7111 25.6666 25.6665 26.7113 25.6665 28V37.3333C25.6665 38.622 26.7111 39.6666 27.9998 39.6666C29.2885 39.6666 30.3332 38.622 30.3332 37.3333V28Z" fill="#DDEAF5"/>
</svg>
