<svg width="178" height="64" viewBox="0 0 178 64" fill="none" xmlns="http://www.w3.org/2000/svg">
<path d="M59.8667 23.3994C58.8459 23.8528 57.7494 24.1578 56.5985 24.2954C57.7739 23.5914 58.6753 22.4768 59.0998 21.1477C58.0011 21.7994 56.783 22.273 55.4859 22.529C54.4481 21.4229 52.9697 20.7317 51.3334 20.7317C48.191 20.7317 45.6438 23.28 45.6438 26.4213C45.6438 26.8672 45.695 27.3024 45.791 27.7173C41.0625 27.4805 36.8705 25.2149 34.063 21.7717C33.5745 22.6122 33.2939 23.5893 33.2939 24.6336C33.2939 26.6069 34.2977 28.3488 35.8241 29.3685C34.8918 29.3386 34.0139 29.0826 33.247 28.657C33.247 28.6816 33.247 28.704 33.247 28.7285C33.247 31.4858 35.2075 33.7856 37.8113 34.3072C37.3345 34.4373 36.831 34.5066 36.3115 34.5066C35.9457 34.5066 35.5883 34.4704 35.2417 34.4053C35.9659 36.6656 38.0673 38.3114 40.5569 38.3573C38.6102 39.8837 36.1569 40.7936 33.4902 40.7936C33.0315 40.7936 32.5782 40.7669 32.1323 40.7136C34.6507 42.3274 37.6406 43.2693 40.8545 43.2693C51.3206 43.2693 57.0422 34.5994 57.0422 27.0805C57.0422 26.8341 57.0369 26.5888 57.0262 26.3445C58.1387 25.5413 59.1041 24.5397 59.8667 23.3994Z" fill="white"/>
<path d="M75.4162 39C75.2696 39 75.1429 38.9533 75.0362 38.86C74.9429 38.7667 74.8962 38.6467 74.8962 38.5V28.26H71.3762C71.2296 28.26 71.1029 28.2133 70.9962 28.12C70.9029 28.0267 70.8562 27.9067 70.8562 27.76V25.52C70.8562 25.3733 70.9029 25.2533 70.9962 25.16C71.1029 25.0533 71.2296 25 71.3762 25H82.2363C82.3829 25 82.5029 25.0533 82.5963 25.16C82.7029 25.2533 82.7562 25.3733 82.7562 25.52V27.76C82.7562 27.9067 82.7029 28.0267 82.5963 28.12C82.5029 28.2133 82.3829 28.26 82.2363 28.26H78.7162V38.5C78.7162 38.6467 78.6629 38.7667 78.5562 38.86C78.4629 38.9533 78.3429 39 78.1962 39H75.4162ZM86.8889 39C86.7022 39 86.5556 38.96 86.4489 38.88C86.3556 38.7867 86.2822 38.66 86.2289 38.5L83.3489 29.24L83.3089 29.06C83.3089 28.9267 83.3556 28.82 83.4489 28.74C83.5422 28.6467 83.6489 28.6 83.7689 28.6H85.9489C86.1089 28.6 86.2422 28.6467 86.3489 28.74C86.4556 28.82 86.5222 28.9133 86.5489 29.02L88.1889 34.56L89.9289 29.06C89.9556 28.94 90.0222 28.8333 90.1289 28.74C90.2356 28.6467 90.3756 28.6 90.5489 28.6H91.9289C92.1022 28.6 92.2422 28.6467 92.3489 28.74C92.4556 28.8333 92.5289 28.94 92.5689 29.06L94.3089 34.56L95.9289 29.02C95.9689 28.9133 96.0356 28.82 96.1289 28.74C96.2356 28.6467 96.3689 28.6 96.5289 28.6H98.7089C98.8422 28.6 98.9489 28.6467 99.0289 28.74C99.1222 28.82 99.1689 28.9267 99.1689 29.06C99.1689 29.1267 99.1622 29.1867 99.1489 29.24L96.2489 38.5C96.1556 38.8333 95.9422 39 95.6089 39H93.7089C93.3756 39 93.1489 38.8333 93.0289 38.5L91.2489 33.18L89.4489 38.5C89.3556 38.8333 89.1356 39 88.7889 39H86.8889ZM101.685 27.16C101.539 27.16 101.419 27.1133 101.325 27.02C101.232 26.9133 101.185 26.7867 101.185 26.64V24.78C101.185 24.6333 101.232 24.5133 101.325 24.42C101.432 24.3133 101.552 24.26 101.685 24.26H104.185C104.332 24.26 104.452 24.3133 104.545 24.42C104.652 24.5133 104.705 24.6333 104.705 24.78V26.64C104.705 26.7867 104.652 26.9133 104.545 27.02C104.452 27.1133 104.332 27.16 104.185 27.16H101.685ZM101.685 39C101.552 39 101.432 38.9533 101.325 38.86C101.232 38.7533 101.185 38.6333 101.185 38.5V29.1C101.185 28.9533 101.232 28.8333 101.325 28.74C101.432 28.6467 101.552 28.6 101.685 28.6H104.185C104.332 28.6 104.452 28.6467 104.545 28.74C104.652 28.8333 104.705 28.9533 104.705 29.1V38.5C104.705 38.6467 104.652 38.7667 104.545 38.86C104.452 38.9533 104.332 39 104.185 39H101.685ZM112.846 39C110.019 39 108.606 37.6733 108.606 35.02V31.32H107.026C106.893 31.32 106.773 31.2733 106.666 31.18C106.573 31.0733 106.526 30.9533 106.526 30.82V29.1C106.526 28.9533 106.573 28.8333 106.666 28.74C106.773 28.6467 106.893 28.6 107.026 28.6H108.606V25.3C108.606 25.1533 108.653 25.0333 108.746 24.94C108.853 24.8467 108.973 24.8 109.106 24.8H111.566C111.713 24.8 111.833 24.8467 111.926 24.94C112.019 25.0333 112.066 25.1533 112.066 25.3V28.6H114.566C114.713 28.6 114.833 28.6467 114.926 28.74C115.033 28.8333 115.086 28.9533 115.086 29.1V30.82C115.086 30.9667 115.033 31.0867 114.926 31.18C114.833 31.2733 114.713 31.32 114.566 31.32H112.066V34.72C112.066 35.1867 112.153 35.54 112.326 35.78C112.499 36.02 112.779 36.14 113.166 36.14H114.746C114.893 36.14 115.013 36.1933 115.106 36.3C115.199 36.3933 115.246 36.5133 115.246 36.66V38.5C115.246 38.6333 115.199 38.7533 115.106 38.86C115.013 38.9533 114.893 39 114.746 39H112.846ZM122.719 39C119.892 39 118.479 37.6733 118.479 35.02V31.32H116.899C116.765 31.32 116.645 31.2733 116.539 31.18C116.445 31.0733 116.399 30.9533 116.399 30.82V29.1C116.399 28.9533 116.445 28.8333 116.539 28.74C116.645 28.6467 116.765 28.6 116.899 28.6H118.479V25.3C118.479 25.1533 118.525 25.0333 118.619 24.94C118.725 24.8467 118.845 24.8 118.979 24.8H121.439C121.585 24.8 121.705 24.8467 121.799 24.94C121.892 25.0333 121.939 25.1533 121.939 25.3V28.6H124.439C124.585 28.6 124.705 28.6467 124.799 28.74C124.905 28.8333 124.959 28.9533 124.959 29.1V30.82C124.959 30.9667 124.905 31.0867 124.799 31.18C124.705 31.2733 124.585 31.32 124.439 31.32H121.939V34.72C121.939 35.1867 122.025 35.54 122.199 35.78C122.372 36.02 122.652 36.14 123.039 36.14H124.619C124.765 36.14 124.885 36.1933 124.979 36.3C125.072 36.3933 125.119 36.5133 125.119 36.66V38.5C125.119 38.6333 125.072 38.7533 124.979 38.86C124.885 38.9533 124.765 39 124.619 39H122.719ZM132.011 39.2C130.385 39.2 129.105 38.7667 128.171 37.9C127.238 37.02 126.758 35.7467 126.731 34.08V33.46C126.785 31.8733 127.278 30.6333 128.211 29.74C129.145 28.8467 130.405 28.4 131.991 28.4C133.138 28.4 134.105 28.6333 134.891 29.1C135.691 29.5533 136.285 30.1867 136.671 31C137.071 31.8 137.271 32.7133 137.271 33.74V34.24C137.271 34.3867 137.218 34.5133 137.111 34.62C137.018 34.7133 136.898 34.76 136.751 34.76H130.411V34.88C130.425 35.48 130.565 35.9667 130.831 36.34C131.098 36.7 131.478 36.88 131.971 36.88C132.291 36.88 132.545 36.82 132.731 36.7C132.931 36.5667 133.118 36.4 133.291 36.2C133.411 36.0667 133.505 35.9867 133.571 35.96C133.651 35.92 133.771 35.9 133.931 35.9H136.551C136.671 35.9 136.771 35.94 136.851 36.02C136.945 36.0867 136.991 36.1733 136.991 36.28C136.991 36.6267 136.791 37.0333 136.391 37.5C136.005 37.9667 135.431 38.3667 134.671 38.7C133.925 39.0333 133.038 39.2 132.011 39.2ZM133.591 32.72V32.68C133.591 32.04 133.451 31.5467 133.171 31.2C132.891 30.84 132.498 30.66 131.991 30.66C131.485 30.66 131.091 30.84 130.811 31.2C130.545 31.5467 130.411 32.04 130.411 32.68V32.72H133.591ZM139.965 39C139.832 39 139.712 38.9533 139.605 38.86C139.512 38.7533 139.465 38.6333 139.465 38.5V29.12C139.465 28.9733 139.512 28.8533 139.605 28.76C139.698 28.6533 139.818 28.6 139.965 28.6H142.405C142.552 28.6 142.672 28.6533 142.765 28.76C142.872 28.8533 142.925 28.9733 142.925 29.12V29.88C143.298 29.4667 143.732 29.1533 144.225 28.94C144.732 28.7133 145.292 28.6 145.905 28.6H146.805C146.952 28.6 147.072 28.6467 147.165 28.74C147.258 28.8333 147.305 28.9533 147.305 29.1V31.28C147.305 31.4133 147.258 31.5333 147.165 31.64C147.072 31.7333 146.952 31.78 146.805 31.78H144.785C144.252 31.78 143.838 31.9267 143.545 32.22C143.265 32.5133 143.125 32.9267 143.125 33.46V38.5C143.125 38.6467 143.072 38.7667 142.965 38.86C142.872 38.9533 142.752 39 142.605 39H139.965Z" fill="white"/>
</svg>
