<svg width="56" height="56" viewBox="0 0 56 56" fill="none" xmlns="http://www.w3.org/2000/svg">
<g clip-path="url(#clip0)">
<g filter="url(#filter0_d)">
<path fill-rule="evenodd" clip-rule="evenodd" d="M27.9998 4.66663C22.8452 4.66663 18.6665 8.8453 18.6665 14V21H23.3332V14C23.3332 11.4226 25.4224 9.33329 27.9998 9.33329C30.5772 9.33329 32.6665 11.4226 32.6665 14V21H37.3332V14C37.3332 8.8453 33.1544 4.66663 27.9998 4.66663ZM36.9567 21H19.0436C17.8136 21 16.7524 20.9999 15.8785 21.0713C14.956 21.1467 14.0385 21.3131 13.1556 21.763C11.8384 22.4341 10.7676 23.5048 10.0965 24.822C9.64661 25.7049 9.4802 26.6224 9.40483 27.545C9.33343 28.4188 9.33345 29.48 9.3335 30.7099V41.6234C9.33345 42.8533 9.33343 43.9145 9.40483 44.7883C9.4802 45.7109 9.64661 46.6284 10.0965 47.5113C10.7676 48.8285 11.8384 49.8993 13.1556 50.5703C14.0385 51.0202 14.956 51.1866 15.8785 51.2619C16.7524 51.3333 17.8136 51.3333 19.0436 51.3333H36.9567C38.1868 51.3333 39.248 51.3333 40.1218 51.2619C41.0444 51.1866 41.9619 51.0202 42.8448 50.5703C44.162 49.8993 45.2328 48.8285 45.9038 47.5113C46.3537 46.6284 46.5201 45.7109 46.5954 44.7883C46.6668 43.9145 46.6668 42.8533 46.6668 41.6234V30.7102C46.6668 29.4803 46.6668 28.4188 46.5954 27.545C46.5201 26.6224 46.3537 25.7049 45.9038 24.822C45.2328 23.5048 44.162 22.4341 42.8448 21.763C41.9619 21.3131 41.0444 21.1467 40.1218 21.0713C39.248 20.9999 38.1868 21 36.9567 21ZM25.6668 37.3333C25.6668 36.0446 26.7115 35 28.0002 35C29.2889 35 30.3335 36.0446 30.3335 37.3333V39.6667C30.3335 40.9554 29.2889 42 28.0002 42C26.7115 42 25.6668 40.9554 25.6668 39.6667V37.3333Z" fill="url(#paint0_linear)"/>
</g>
</g>
<defs>
<filter id="filter0_d" x="5.3335" y="-1.33337" width="49.3333" height="58.6667" filterUnits="userSpaceOnUse" color-interpolation-filters="sRGB">
<feFlood flood-opacity="0" result="BackgroundImageFix"/>
<feColorMatrix in="SourceAlpha" type="matrix" values="0 0 0 0 0 0 0 0 0 0 0 0 0 0 0 0 0 0 127 0"/>
<feOffset dx="2"/>
<feGaussianBlur stdDeviation="3"/>
<feColorMatrix type="matrix" values="0 0 0 0 0.0339063 0 0 0 0 0.2625 0 0 0 0 0.24233 0 0 0 0.4 0"/>
<feBlend mode="normal" in2="BackgroundImageFix" result="effect1_dropShadow"/>
<feBlend mode="normal" in="SourceGraphic" in2="effect1_dropShadow" result="shape"/>
</filter>
<linearGradient id="paint0_linear" x1="28.0002" y1="4.66663" x2="28.0002" y2="51.3333" gradientUnits="userSpaceOnUse">
<stop stop-color="#A0F5B8"/>
<stop offset="1" stop-color="#11998E"/>
</linearGradient>
<clipPath id="clip0">
<rect width="56" height="56" fill="white"/>
</clipPath>
</defs>
</svg>
